<mxfile host="app.diagrams.net" modified="2020-06-17T10:22:40.816Z" agent="5.0 (Windows NT 10.0; Win64; x64) AppleWebKit/537.36 (KHTML, like Gecko) Chrome/83.0.4103.97 Safari/537.36 Edg/83.0.478.50" etag="5oXppXG5xYQgKhJl_BeC" version="13.2.4" type="github">
  <diagram id="n7LuqTrb2Owk7uKAQcxX" name="Page-1">
    <mxGraphModel dx="1052" dy="507" grid="0" gridSize="10" guides="1" tooltips="1" connect="1" arrows="1" fold="1" page="0" pageScale="1" pageWidth="827" pageHeight="1169" math="0" shadow="0">
      <root>
        <mxCell id="0" />
        <mxCell id="1" parent="0" />
        <mxCell id="Gj8HOwqCFwaQLqe-HiqV-5" value="Trust (PROTECTIVE)" style="rounded=0;whiteSpace=wrap;html=1;verticalAlign=top;strokeColor=#97D077;" parent="1" vertex="1">
          <mxGeometry x="361" y="99" width="195" height="306" as="geometry" />
        </mxCell>
        <mxCell id="Gj8HOwqCFwaQLqe-HiqV-1" value="" style="endArrow=none;html=1;exitX=0.262;exitY=0.902;exitDx=0;exitDy=0;exitPerimeter=0;dashed=1;" parent="1" source="Gj8HOwqCFwaQLqe-HiqV-5" edge="1">
          <mxGeometry width="50" height="50" relative="1" as="geometry">
            <mxPoint x="412" y="346" as="sourcePoint" />
            <mxPoint x="412" y="169" as="targetPoint" />
          </mxGeometry>
        </mxCell>
        <mxCell id="Gj8HOwqCFwaQLqe-HiqV-2" value="" style="endArrow=none;html=1;dashed=1;" parent="1" edge="1">
          <mxGeometry width="50" height="50" relative="1" as="geometry">
            <mxPoint x="515" y="372" as="sourcePoint" />
            <mxPoint x="515" y="170" as="targetPoint" />
          </mxGeometry>
        </mxCell>
        <mxCell id="Gj8HOwqCFwaQLqe-HiqV-3" value="Reputation&lt;br&gt;Manager" style="text;html=1;strokeColor=none;fillColor=none;align=center;verticalAlign=middle;whiteSpace=wrap;rounded=0;" parent="1" vertex="1">
          <mxGeometry x="491" y="136" width="40" height="20" as="geometry" />
        </mxCell>
        <mxCell id="Gj8HOwqCFwaQLqe-HiqV-4" value="Event&lt;br&gt;Handler" style="text;html=1;strokeColor=none;fillColor=none;align=center;verticalAlign=middle;whiteSpace=wrap;rounded=0;" parent="1" vertex="1">
          <mxGeometry x="389" y="135" width="40" height="20" as="geometry" />
        </mxCell>
        <mxCell id="Gj8HOwqCFwaQLqe-HiqV-8" value="Alert flow" style="endArrow=classic;html=1;verticalAlign=bottom;" parent="1" edge="1">
          <mxGeometry width="50" height="50" relative="1" as="geometry">
            <mxPoint x="249" y="188" as="sourcePoint" />
            <mxPoint x="412" y="188" as="targetPoint" />
          </mxGeometry>
        </mxCell>
        <mxCell id="Gj8HOwqCFwaQLqe-HiqV-9" value="" style="endArrow=classic;html=1;" parent="1" edge="1">
          <mxGeometry width="50" height="50" relative="1" as="geometry">
            <mxPoint x="412" y="188" as="sourcePoint" />
            <mxPoint x="515" y="188" as="targetPoint" />
          </mxGeometry>
        </mxCell>
        <mxCell id="Gj8HOwqCFwaQLqe-HiqV-10" value="" style="endArrow=classic;html=1;" parent="1" edge="1">
          <mxGeometry width="50" height="50" relative="1" as="geometry">
            <mxPoint x="515" y="188" as="sourcePoint" />
            <mxPoint x="614" y="188" as="targetPoint" />
          </mxGeometry>
        </mxCell>
        <mxCell id="Gj8HOwqCFwaQLqe-HiqV-11" value="TITAN" style="rounded=0;whiteSpace=wrap;html=1;verticalAlign=top;strokeColor=#7EA6E0;" parent="1" vertex="1">
          <mxGeometry x="185" y="209" width="135" height="196" as="geometry" />
        </mxCell>
        <mxCell id="Gj8HOwqCFwaQLqe-HiqV-12" value="" style="endArrow=none;html=1;dashed=1;" parent="1" edge="1">
          <mxGeometry width="50" height="50" relative="1" as="geometry">
            <mxPoint x="252" y="366" as="sourcePoint" />
            <mxPoint x="252" y="266" as="targetPoint" />
          </mxGeometry>
        </mxCell>
        <mxCell id="Gj8HOwqCFwaQLqe-HiqV-13" value="Agent" style="text;html=1;strokeColor=none;fillColor=none;align=center;verticalAlign=middle;whiteSpace=wrap;rounded=0;" parent="1" vertex="1">
          <mxGeometry x="233" y="243" width="40" height="20" as="geometry" />
        </mxCell>
        <mxCell id="Gj8HOwqCFwaQLqe-HiqV-14" value="Phase B" style="endArrow=classic;html=1;verticalAlign=bottom;" parent="1" edge="1">
          <mxGeometry width="50" height="50" relative="1" as="geometry">
            <mxPoint x="411" y="283" as="sourcePoint" />
            <mxPoint x="254" y="283" as="targetPoint" />
          </mxGeometry>
        </mxCell>
        <mxCell id="Gj8HOwqCFwaQLqe-HiqV-15" value="Phase B and C" style="endArrow=classic;html=1;verticalAlign=bottom;" parent="1" edge="1">
          <mxGeometry width="50" height="50" relative="1" as="geometry">
            <mxPoint x="253" y="316" as="sourcePoint" />
            <mxPoint x="512" y="316" as="targetPoint" />
          </mxGeometry>
        </mxCell>
      </root>
    </mxGraphModel>
  </diagram>
</mxfile>
